HIERARCHY
ROOT Pelvis
{
	OFFSET 0.000000 0.000000 0.000000
	CHANNELS 6 Xposition Yposition Zposition Xrotation Yrotation Zrotation
	JOINT LeftUpLeg_virtual
	{
		OFFSET 0.000000 0.000000 0.000000
		CHANNELS 3 Xrotation Yrotation Zrotation
		JOINT LeftUpLeg
		{
			OFFSET 18.735201 -5.666702 -4.541200
			CHANNELS 3 Xrotation Yrotation Zrotation
			JOINT LeftLeg
			{
				OFFSET -0.021200 -31.938179 0.493100
				CHANNELS 3 Xrotation Yrotation Zrotation
				JOINT LeftFoot
				{
					OFFSET 0.021200 -31.938179 -4.336299
					CHANNELS 3 Xrotation Yrotation Zrotation
					JOINT LeftToeBase
					{
						OFFSET 0.943001 -26.722000 15.023500
						CHANNELS 3 Xrotation Yrotation Zrotation
						End Site
						{
							OFFSET 0 0 0
						}
					}
				}
			}
		}
	}
	JOINT RightUpLeg_virtual
	{
		OFFSET 0.000000 0.000000 0.000000
		CHANNELS 3 Xrotation Yrotation Zrotation
		JOINT RightUpLeg
		{
			OFFSET -18.735201 -5.666702 -4.541200
			CHANNELS 3 Xrotation Yrotation Zrotation
			JOINT RightLeg
			{
				OFFSET 0.018946 -31.938133 0.493100
				CHANNELS 3 Xrotation Yrotation Zrotation
				JOINT RightFoot
				{
					OFFSET -0.018946 -31.938126 -4.336299
					CHANNELS 3 Xrotation Yrotation Zrotation
					JOINT RightToeBase
					{
						OFFSET -0.943001 -26.722004 15.023500
						CHANNELS 3 Xrotation Yrotation Zrotation
						End Site
						{
							OFFSET 0 0 0
						}
					}
				}
			}
		}
	}
	JOINT Hips_virtual
	{
		OFFSET 0.000000 0.000000 0.000000
		CHANNELS 3 Xrotation Yrotation Zrotation
		JOINT Hips
		{
			OFFSET -0.000000 -0.000000 -0.000000
			CHANNELS 3 Xrotation Yrotation Zrotation
			JOINT Spine
			{
				OFFSET 0.000000 10.199997 -0.299500
				CHANNELS 3 Xrotation Yrotation Zrotation
				JOINT Spine1
				{
					OFFSET 0.000000 11.900002 -1.516600
					CHANNELS 3 Xrotation Yrotation Zrotation
					JOINT Spine2
					{
						OFFSET 0.000000 13.600006 -2.842500
						CHANNELS 3 Xrotation Yrotation Zrotation
						JOINT Neck_virtual
						{
							OFFSET 0.000000 0.000000 0.000000
							CHANNELS 3 Xrotation Yrotation Zrotation
							JOINT Neck
							{
								OFFSET 0.000000 9.624100 -2.890100
								CHANNELS 3 Xrotation Yrotation Zrotation
								JOINT Head
								{
									OFFSET 0.000000 14.068802 -1.351900
									CHANNELS 3 Xrotation Yrotation Zrotation
									End Site
									{
										OFFSET 0 0 0
									}
								}
							}
						}
						JOINT LeftShoulder_virtual
						{
							OFFSET 0.000000 0.000000 0.000000
							CHANNELS 3 Xrotation Yrotation Zrotation
							JOINT LeftShoulder
							{
								OFFSET 15.263000 10.923401 -0.547700
								CHANNELS 3 Xrotation Yrotation Zrotation
								JOINT LeftArm
								{
									OFFSET 25.438599 -2.830597 -13.032500
									CHANNELS 3 Xrotation Yrotation Zrotation
									JOINT LeftForeArm
									{
										OFFSET 29.960503 0.000000 0.000000
										CHANNELS 3 Xrotation Yrotation Zrotation
										JOINT LeftHand
										{
											OFFSET 27.849251 0.000000 0.000000
											CHANNELS 3 Xrotation Yrotation Zrotation
											End Site
											{
												OFFSET 0 0 0
											}
										}
									}
								}
							}
						}
						JOINT RightShoulder_virtual
						{
							OFFSET 0.000000 0.000000 0.000000
							CHANNELS 3 Xrotation Yrotation Zrotation
							JOINT RightShoulder
							{
								OFFSET -15.263000 10.923401 -0.547700
								CHANNELS 3 Xrotation Yrotation Zrotation
								JOINT RightArm
								{
									OFFSET -25.438599 -2.830597 -13.032500
									CHANNELS 3 Xrotation Yrotation Zrotation
									JOINT RightForeArm
									{
										OFFSET -29.960503 0.000000 0.000000
										CHANNELS 3 Xrotation Yrotation Zrotation
										JOINT RightHand
										{
											OFFSET -27.849251 0.000000 0.000000
											CHANNELS 3 Xrotation Yrotation Zrotation
											End Site
											{
												OFFSET 0 0 0
											}
										}
									}
								}
							}
						}
					}
				}
			}
		}
	}
}
MOTION
Frames: 6
Frame Time: 0.03333333
1.009982 81.785011 -0.373695 0.000000 0.000000 0.000000 2.247545 -14.507305 -2.452526 -40.874779 7.557912 14.950514 56.299982 5.876242 -1.972166 -1.599316 5.867676 -3.761384 0.000000 0.000000 0.000000 -4.360889 -6.346274 5.598178 -38.764411 -6.382962 -10.600490 53.383420 -7.094424 -3.971350 -7.595005 -7.128458 0.849035 0.000000 0.000000 0.000000 5.557251 4.067055 -0.667219 17.109824 1.523239 -0.521980 10.878730 0.989766 0.433172 5.855626 0.984011 -0.259264 0.000000 0.000000 0.000000 2.927099 0.719323 0.933325 -0.618248 -0.320609 1.565818 0.000000 0.000000 0.000000 5.995125 -1.093008 0.379215 2.798236 -17.950881 3.077332 -54.951816 -33.597359 -71.466148 -161.908186 -75.587429 -159.985119 0.000000 0.000000 0.000000 6.978463 1.605509 0.356463 3.112872 9.953924 6.177943 -47.804890 46.427927 49.195015 -164.825360 78.264611 161.072362 0.000000 0.000000 0.000000 
1.063392 81.788353 -0.453451 0.000000 0.000000 0.000000 2.292616 -14.647610 -2.498667 -40.782052 7.553719 14.874467 56.288241 5.930215 -1.974337 -1.679749 5.912757 -3.735636 0.000000 0.000000 0.000000 -4.371260 -6.405564 5.577976 -38.747458 -6.392824 -10.597574 53.201143 -7.141469 -3.948089 -7.784504 -7.184583 0.851989 0.000000 0.000000 0.000000 5.622839 4.172431 -0.669345 17.138191 1.457086 -0.380702 10.885166 0.993571 0.402820 5.889275 0.989819 -0.267720 0.000000 0.000000 0.000000 2.961435 0.740731 0.922736 -0.606498 -0.331753 1.571835 0.000000 0.000000 0.000000 6.067362 -1.077386 0.387647 2.838566 -18.053687 3.189127 -55.245090 -33.608745 -71.543650 -162.221077 -75.316817 -160.280443 0.000000 0.000000 0.000000 6.998146 1.601481 0.363590 3.098391 9.786330 6.201602 -48.123290 46.757426 49.234080 -165.042287 78.082299 161.269044 0.000000 0.000000 0.000000 
1.154030 81.800987 -0.608403 0.000000 0.000000 0.000000 2.369956 -14.898284 -2.578324 -40.621522 7.543901 14.742227 56.260309 6.029946 -1.980853 -1.831011 5.997359 -3.691990 0.000000 0.000000 0.000000 -4.395710 -6.513658 5.539708 -38.721473 -6.409953 -10.591556 52.863851 -7.223349 -3.905551 -8.128212 -7.283436 0.859724 0.000000 0.000000 0.000000 5.759113 4.358984 -0.665380 17.187705 1.348978 -0.126030 10.883865 1.003767 0.351358 5.950353 0.998123 -0.283901 0.000000 0.000000 0.000000 3.015440 0.783698 0.903633 -0.588058 -0.353713 1.582952 0.000000 0.000000 0.000000 6.200910 -1.048865 0.402068 2.912820 -18.248090 3.396120 -55.764120 -33.626913 -71.660897 -162.758681 -74.820030 -160.784702 0.000000 0.000000 0.000000 7.033065 1.594177 0.378000 3.063945 9.478596 6.241394 -48.719220 47.361901 49.335450 -165.380313 77.773499 161.584394 0.000000 0.000000 0.000000 
1.255850 81.832321 -0.828595 0.000000 0.000000 0.000000 2.458922 -15.209260 -2.671233 -40.432124 7.526539 14.585317 56.208881 6.161161 -1.993637 -2.036393 6.111103 -3.641500 0.000000 0.000000 0.000000 -4.438026 -6.649375 5.488341 -38.696467 -6.429818 -10.580809 52.421695 -7.319880 -3.850610 -8.564914 -7.402788 0.874602 0.000000 0.000000 0.000000 5.973993 4.591048 -0.642735 17.248456 1.235348 0.194033 10.855297 1.024341 0.293272 6.027755 1.003963 -0.306091 0.000000 0.000000 0.000000 3.067448 0.847579 0.879754 -0.570746 -0.385792 1.597726 0.000000 0.000000 0.000000 6.377658 -1.011569 0.419120 3.010252 -18.512586 3.669885 -56.402459 -33.644245 -71.758022 -163.391813 -74.172863 -161.370623 0.000000 0.000000 0.000000 7.076499 1.584897 0.399542 3.002721 9.076626 6.285119 -49.519954 48.148281 49.531456 -165.699870 77.427434 161.904375 0.000000 0.000000 0.000000 
1.342521 81.890808 -1.097484 0.000000 0.000000 0.000000 2.538727 -15.525959 -2.756518 -40.250803 7.500379 14.435156 56.127831 6.306729 -2.011610 -2.275029 6.240121 -3.592704 0.000000 0.000000 0.000000 -4.497022 -6.782243 5.432103 -38.676513 -6.447131 -10.561137 51.939398 -7.409444 -3.791280 -9.022757 -7.518475 0.897849 0.000000 0.000000 0.000000 6.274008 4.838416 -0.590232 17.312745 1.147582 0.524373 10.787153 1.058775 0.242226 6.108225 1.003118 -0.331567 0.000000 0.000000 0.000000 3.099676 0.929693 0.855651 -0.561638 -0.426794 1.614632 0.000000 0.000000 0.000000 6.577853 -0.969221 0.436543 3.118729 -18.817275 3.977336 -57.054069 -33.651662 -71.776484 -164.003183 -73.462455 -161.921246 0.000000 0.000000 0.000000 7.122595 1.575160 0.427083 2.912336 8.631659 6.319535 -50.434202 49.010944 49.842131 -165.880706 77.133299 162.128405 0.000000 0.000000 0.000000 
1.395855 81.978958 -1.391392 0.000000 0.000000 0.000000 2.595534 -15.804653 -2.818495 -40.099569 7.465380 14.313488 56.016755 6.449715 -2.029880 -2.524274 6.368970 -3.548703 0.000000 0.000000 0.000000 -4.563262 -6.877590 5.381528 -38.654636 -6.457196 -10.526339 51.483972 -7.475277 -3.734933 -9.436002 -7.610904 0.928495 0.000000 0.000000 0.000000 6.658582 5.087265 -0.503218 17.375762 1.098058 0.817023 10.683455 1.108277 0.205787 6.180067 0.993895 -0.357145 0.000000 0.000000 0.000000 3.106226 1.024652 0.835528 -0.563971 -0.474842 1.632292 0.000000 0.000000 0.000000 6.784775 -0.923887 0.454401 3.227090 -19.127064 4.287396 -57.643129 -33.638719 -71.680172 -164.512387 -72.769430 -162.355263 0.000000 0.000000 0.000000 7.168787 1.566357 0.457998 2.799015 8.189031 6.332644 -51.365403 49.858236 50.257085 -165.862060 76.952203 162.199849 0.000000 0.000000 0.000000 
